<svg xmlns="http://www.w3.org/2000/svg" viewBox="0 0 48 48" fill="none">
  <rect x="4" y="12" width="40" height="24" rx="4" fill="#4CAF50"/>
  <rect x="8" y="16" width="6" height="4" rx="1" fill="white"/>
  <rect x="16" y="16" width="6" height="4" rx="1" fill="white"/>
  <rect x="24" y="16" width="6" height="4" rx="1" fill="white"/>
  <rect x="34" y="16" width="6" height="4" rx="1" fill="white"/>
  <rect x="8" y="22" width="6" height="4" rx="1" fill="white"/>
  <rect x="16" y="22" width="6" height="4" rx="1" fill="white"/>
  <rect x="24" y="22" width="6" height="4" rx="1" fill="white"/>
  <rect x="34" y="22" width="6" height="4" rx="1" fill="white"/>
  <rect x="12" y="28" width="24" height="4" rx="1" fill="white"/>
  <!-- Sound wave -->
  <path d="M42 4 C44 8 44 14 42 18" stroke="#4CAF50" stroke-width="2" stroke-linecap="round" fill="none"/>
  <path d="M38 6 C39 9 39 13 38 16" stroke="#4CAF50" stroke-width="2" stroke-linecap="round" fill="none"/>
</svg>
